<svg id="Layer_1" data-name="Layer 1" xmlns="http://www.w3.org/2000/svg" viewBox="0 0 50 50"><defs><style>.cls-1{fill:#ffd79c;}</style></defs><title>Asset 6</title><g id="Layer_2"><g id="Layer_1-2"><path class="cls-1" d="M36.3,36.3a1.63,1.63,0,0,0-1.63,1.63,1.59,1.59,0,0,0,1.23,1.55v5.79L30,48.48l-5.13-3.19V4.35l5.69-2.78,1.32.66a.68.68,0,0,0,0,.28,1.67,1.67,0,1,0,.47-1.11L30.67.56a.19.19,0,0,0-.18,0l-6,3-3.9-1.9a5,5,0,0,0-4.46.06l-1.94,1a.47.47,0,0,0-.27.6.48.48,0,0,0,.61.27l.1-.05,1.93-1a4,4,0,0,1,3.63-.06L24,4.35V43.21a3.94,3.94,0,0,1-1.86,3.26l-1.26.79a4,4,0,0,1-4,.12l-1.77-1A4,4,0,0,1,13,42.9v-4a.47.47,0,0,0-.31-.59.49.49,0,0,0-.59.31.66.66,0,0,0,0,.28v4a4.93,4.93,0,0,0,2.57,4.32l1.7,1a4.94,4.94,0,0,0,5-.15l1.27-.79A4.81,4.81,0,0,0,24,45.82h0l5.69,3.56.13.08H30l6.65-3.63a.25.25,0,0,0,.11-.18V39.43a1.59,1.59,0,0,0,1.08-1.5A1.63,1.63,0,0,0,36.3,36.3Zm0,.91a.71.71,0,1,1-.72.71A.71.71,0,0,1,36.3,37.21Zm-2.85-34a.71.71,0,0,1-.31-1.39.81.81,0,0,1,.31,0,.71.71,0,0,1,0,1.42Z"/><path class="cls-1" d="M42.05,14.13,36.6,17.51a1.56,1.56,0,0,0-1.07-.41,1.63,1.63,0,1,0,1.63,1.63h0a1.52,1.52,0,0,0-.06-.42l5.07-3.14,5.56,3.42v5.51l-5.5,3.55a1.59,1.59,0,0,0-1.09-.44,1.63,1.63,0,1,0,1.62,1.63h0a1.32,1.32,0,0,0-.06-.39l5.86-3.79a.2.2,0,0,0,.09-.17V18.17a.2.2,0,0,0-.09-.17l-6.29-3.87A.18.18,0,0,0,42.05,14.13Zm-5.8,4.61a.71.71,0,1,1-.71-.71A.71.71,0,0,1,36.25,18.74Zm5.6,10.09a.71.71,0,0,1-1.42,0,.7.7,0,1,1,1.39,0Z"/><path class="cls-1" d="M2.47,26.05,6.7,28.79a.45.45,0,0,0,.25.07.46.46,0,0,0,.39-.21A.48.48,0,0,0,7.21,28L3,25.27a4,4,0,0,1-1.82-3.35V20.81a4,4,0,0,1,1.9-3.4l1.56-1a4,4,0,0,1,4.19,0l3.46,2.14a.47.47,0,0,0,.49-.8h0L9.3,15.65a4.85,4.85,0,0,0-5.16,0l-1.57,1A5,5,0,0,0,.23,20.8v1.11A4.91,4.91,0,0,0,2.47,26.05Z"/><path class="cls-1" d="M29,6.68a1.63,1.63,0,1,0,1.63,1.63h0A1.08,1.08,0,0,0,30.57,8l5.79-3.22L41.58,8v2.63a1.58,1.58,0,0,0-1.15,1.52,1.63,1.63,0,1,0,2.08-1.53v-3a.18.18,0,0,0-.09-.18L36.48,3.82a.2.2,0,0,0-.21,0L30.15,7.2A1.61,1.61,0,0,0,29,6.68Zm.71,1.65A.71.71,0,1,1,29,7.62a.71.71,0,0,1,.71.71Zm12.37,4.54a.71.71,0,1,1,.72-.71.71.71,0,0,1-.72.71h0Z"/><path class="cls-1" d="M6.84,13.45A.47.47,0,0,0,7.3,13V10.27A4,4,0,0,1,9.24,6.86L10.58,6a4,4,0,0,1,4-.08L18.82,8.3a.46.46,0,0,0,.62-.19.43.43,0,0,0,0-.35.47.47,0,0,0-.22-.28L15,5.15a4.89,4.89,0,0,0-5,.11l-1.32.81a5,5,0,0,0-2.32,4.2V13A.45.45,0,0,0,6.84,13.45Z"/><path class="cls-1" d="M48.4,25.84A1.61,1.61,0,0,0,48,29v2.06l-5.46,3.86-6.12-3.79V25.19L42.21,22a1.61,1.61,0,0,0,1.07.42,1.63,1.63,0,1,0-1.63-1.64h0a1.59,1.59,0,0,0,.06.43l-5.78,3.14L30.81,21V15.09l4.39-2.88a1.62,1.62,0,1,0,1.93-2.6,1.6,1.6,0,0,0-2.26.33,1.55,1.55,0,0,0-.32,1,1.4,1.4,0,0,0,.1.54L30,14.53a.2.2,0,0,0-.09.17v6.66a.19.19,0,0,0,.09.16l5.47,3.65v6l-5.5,4.26-.1.08a.21.21,0,0,0-.08.16V42a1.62,1.62,0,1,0,.93,0V36L35.94,32l6.11,3.74v5.87l-1.35.91a1.6,1.6,0,0,0-1-.39,1.63,1.63,0,1,0,1.63,1.63h0a1.93,1.93,0,0,0-.08-.47l1.67-1.1A.19.19,0,0,0,43,42V35.71l5.68-4,.11-.08a.2.2,0,0,0,.09-.16V29A1.6,1.6,0,0,0,50,27.46,1.63,1.63,0,0,0,48.4,25.84Zm0,.93a.71.71,0,1,1-.71.71A.71.71,0,0,1,48.4,26.77Zm-5.12-5.26A.71.71,0,1,1,44,20.8.71.71,0,0,1,43.28,21.51Zm-7.11-9.89a.71.71,0,1,1,.72-.71A.71.71,0,0,1,36.17,11.62Zm-6,32.65a.72.72,0,1,1,.71-.71A.71.71,0,0,1,30.21,44.27Zm10.15-.56a.71.71,0,1,1-.71-.71A.71.71,0,0,1,40.36,43.71Z"/><path class="cls-1" d="M8.53,42.79A4,4,0,0,1,6.82,39.5V37.78a5.06,5.06,0,0,0-.42-1.89h.19l6.63-4.06h0a5,5,0,0,0,1.18,1.32l2.23,1.73A4,4,0,0,1,18.18,38v4.54a.46.46,0,0,0,.4.52.47.47,0,0,0,.53-.41V38a4.89,4.89,0,0,0-1.91-3.89L15,32.38a4,4,0,0,1-1.55-3.16V27.31A4,4,0,0,1,15.22,24L16.81,23a4.93,4.93,0,0,0,2.2-4.1V17.28a4.91,4.91,0,0,0-2.27-4.15l-4.09-2.62a.46.46,0,0,0-.64.14.46.46,0,0,0,.14.64l4.09,2.62a4,4,0,0,1,1.84,3.37v1.55a4,4,0,0,1-1.78,3.32l-1.59,1.06a4.93,4.93,0,0,0-1.42,1.42c0-.05-.06-.11-.13-.15L6.6,20.92a.45.45,0,0,0-.36,0,.44.44,0,0,0-.28.22.5.5,0,0,0,.19.64l6.64,3.55a.67.67,0,0,0,.19.05,4.73,4.73,0,0,0-.43,1.93v1.91A5,5,0,0,0,12.87,31l-.1.05L6.16,35.07a.63.63,0,0,1-.07.1,4.76,4.76,0,0,0-1.3-1.42l-2.13-1.5A4,4,0,0,1,.93,29V27a.47.47,0,0,0-.47-.47A.47.47,0,0,0,0,27v2a4.9,4.9,0,0,0,2.08,4l2.14,1.51a4,4,0,0,1,1.69,3.26v1.73A4.93,4.93,0,0,0,8,43.56l2.25,1.56a.38.38,0,0,0,.27.08.45.45,0,0,0,.38-.19.49.49,0,0,0,.08-.35.46.46,0,0,0-.19-.3Z"/></g></g></svg>