<svg xmlns="http://www.w3.org/2000/svg" viewBox="0 0 360.27 68.89">
    <defs>
        <style>
            .cls-1{fill:#fff;}.cls-2{fill:#ffd79c;}
        </style>
    </defs>
    <title>Asset 1</title>
    <g id="Layer_2">
        <g id="Layer_1-2">
            <path class="cls-1" d="M93.48,16.72a8.24,8.24,0,0,1,1.41.11,2.76,2.76,0,0,1,1,.43,3.17,3.17,0,0,1,.8.86,9,9,0,0,1,.72,1.43l7.73,17.82a.52.52,0,0,0,.52.34h.44a.52.52,0,0,0,.52-.34l7.73-17.82a9,9,0,0,1,.72-1.43,3.17,3.17,0,0,1,.8-.86,2.73,2.73,0,0,1,1-.43,8,8,0,0,1,1.4-.11h4a3.14,3.14,0,0,1,2.6.87,5,5,0,0,1,.67,3V41.9c0,.55-.29.82-.86.82h-3.78a.72.72,0,0,1-.82-.82V22.52c0-.25-.1-.38-.3-.38h-.33a.47.47,0,0,0-.49.3l-7.5,16.64a11.3,11.3,0,0,1-.91,1.69,5.07,5.07,0,0,1-1,1.13,3.29,3.29,0,0,1-1.23.64,6.38,6.38,0,0,1-1.61.18H105a6.44,6.44,0,0,1-1.61-.18,3.29,3.29,0,0,1-1.23-.64,5.07,5.07,0,0,1-1-1.13,11.3,11.3,0,0,1-.91-1.69L92.7,22.44a.47.47,0,0,0-.49-.3h-.33c-.2,0-.3.13-.3.38V41.9a.72.72,0,0,1-.81.82H87c-.57,0-.86-.27-.86-.82V20.58a5.11,5.11,0,0,1,.67-3,3.21,3.21,0,0,1,2.64-.87Z"/>
            <path class="cls-1" d="M154.28,16.72a18.6,18.6,0,0,1,4.81.54A7.51,7.51,0,0,1,162.32,19a6.68,6.68,0,0,1,1.8,3,15.9,15.9,0,0,1,.56,4.53v6.39a16.2,16.2,0,0,1-.56,4.55,6.66,6.66,0,0,1-1.8,3,7.28,7.28,0,0,1-3.23,1.69,19.12,19.12,0,0,1-4.81.52H142.8A18.85,18.85,0,0,1,138,42.2a7.26,7.26,0,0,1-3.21-1.69,6.78,6.78,0,0,1-1.82-3,15.44,15.44,0,0,1-.58-4.55V26.53A15.16,15.16,0,0,1,133,22a6.8,6.8,0,0,1,1.82-3A7.49,7.49,0,0,1,138,17.26a18.33,18.33,0,0,1,4.79-.54ZM138.09,32.51a10.49,10.49,0,0,0,.24,2.43,3.22,3.22,0,0,0,.8,1.56,3.12,3.12,0,0,0,1.5.82,10,10,0,0,0,2.4.24h11a10,10,0,0,0,2.39-.24A3.15,3.15,0,0,0,158,36.5a3.39,3.39,0,0,0,.8-1.56,10.49,10.49,0,0,0,.24-2.43V26.94a10.52,10.52,0,0,0-.24-2.44,3.5,3.5,0,0,0-.8-1.56,3.14,3.14,0,0,0-1.51-.81,9.89,9.89,0,0,0-2.39-.25H143a9.92,9.92,0,0,0-2.4.25,3.11,3.11,0,0,0-1.5.81,3.31,3.31,0,0,0-.8,1.56,10.52,10.52,0,0,0-.24,2.44Z"/>
            <path class="cls-1" d="M178.12,16.72a12.13,12.13,0,0,1,1.49.08,3,3,0,0,1,1,.31,3.48,3.48,0,0,1,.85.67,10.42,10.42,0,0,1,.93,1.13L196.25,37a.52.52,0,0,0,.48.26h.34c.2,0,.29-.12.29-.37V17.54a.73.73,0,0,1,.82-.82h3.9a.72.72,0,0,1,.82.82V38.86a4.27,4.27,0,0,1-.82,3.06,3.45,3.45,0,0,1-2.52.8h-3.2a11.54,11.54,0,0,1-1.43-.07A3,3,0,0,1,193,41.7a9.57,9.57,0,0,1-1-1.17L178.2,22.41a.63.63,0,0,0-.48-.27h-.34c-.2,0-.3.13-.3.38V41.9a.72.72,0,0,1-.81.82h-3.9c-.57,0-.86-.27-.86-.82V20.58a4.31,4.31,0,0,1,.82-3.06,3.51,3.51,0,0,1,2.53-.8Z"/>
            <path class="cls-1" d="M217,37.45l-2.56,4.79a.89.89,0,0,1-.85.48h-4.83c-.32,0-.52-.08-.58-.24a.79.79,0,0,1,.09-.61l12.19-22.32a6.15,6.15,0,0,1,1.82-2.25,3.67,3.67,0,0,1,2.08-.58h2.19a4.54,4.54,0,0,1,2.38.58,5.84,5.84,0,0,1,1.89,2.25l12.29,22.32a.75.75,0,0,1,.1.61c-.07.16-.24.24-.54.24H238a.85.85,0,0,1-.85-.48l-2.64-4.79-2.34-4.31-5.91-10.88a.44.44,0,0,0-.4-.26h-.23a.45.45,0,0,0-.41.26l-5.83,10.88"/>
            <path class="cls-1" d="M269.57,16.72c2.85,0,4.89.65,6.13,1.93a8,8,0,0,1,1.86,5.72v2.12a8.72,8.72,0,0,1-1.3,5.05A6.23,6.23,0,0,1,272,33.92l6.35,7.87a.58.58,0,0,1,.11.56c-.05.25-.24.37-.59.37H273.1a1.47,1.47,0,0,1-.67-.11,1.29,1.29,0,0,1-.37-.37l-5.87-7.73h-12V41.9a.72.72,0,0,1-.81.82h-4c-.57,0-.85-.27-.85-.82V17.84a1,1,0,0,1,1.11-1.12ZM254.19,30h14.23a3.57,3.57,0,0,0,2.67-.82,3.46,3.46,0,0,0,.78-2.48V25.12a3.47,3.47,0,0,0-.78-2.49,3.57,3.57,0,0,0-2.67-.82H254.68c-.33,0-.49.15-.49.45Z"/>
            <path class="cls-1" d="M289.22,16.72a.73.73,0,0,1,.82.82v9.88h5.23c.6,0,1.09,0,1.49-.06a3.24,3.24,0,0,0,1-.24,2.85,2.85,0,0,0,.82-.52,7.49,7.49,0,0,0,.77-.85l6.39-8.55a1.61,1.61,0,0,1,.37-.37,1.62,1.62,0,0,1,.71-.11h4.61c.32,0,.51.11.57.32a.64.64,0,0,1-.09.57l-7.21,9.33a17.07,17.07,0,0,1-1.17,1.44,13,13,0,0,1-1.05,1.05,10.88,10.88,0,0,1,2.82,2.67L313,41.76a.74.74,0,0,1,.11.57c0,.26-.22.39-.59.39h-4.75a1.44,1.44,0,0,1-.67-.11,1.18,1.18,0,0,1-.37-.37l-6.84-8.84a4,4,0,0,0-1.6-1.32,7.18,7.18,0,0,0-2.56-.35H290V41.9a.73.73,0,0,1-.82.82h-4c-.57,0-.86-.27-.86-.82V17.54c0-.55.29-.82.86-.82Z"/>
            <path class="cls-1" d="M323.17,16.72a.72.72,0,0,1,.81.82V41.9a.72.72,0,0,1-.81.82h-4c-.57,0-.85-.27-.85-.82V17.54c0-.55.28-.82.85-.82Z"/>
            <path class="cls-1" d="M359.42,16.72c.57,0,.85.27.85.82v3.64a.75.75,0,0,1-.85.85H347.75V41.9a.72.72,0,0,1-.81.82h-4.05a.72.72,0,0,1-.82-.82V22H330.41a.76.76,0,0,1-.86-.85V17.54c0-.55.29-.82.86-.82Z"/>
            <path class="cls-1" d="M126.07,58.44a3.63,3.63,0,0,1,3.79-3.66,3.53,3.53,0,0,1,2.72,1.12l-.67.64a2.65,2.65,0,0,0-2-.85,2.75,2.75,0,1,0,0,5.5,2.66,2.66,0,0,0,2-.86l.67.64a3.53,3.53,0,0,1-2.73,1.12A3.61,3.61,0,0,1,126.07,58.44Z"/>
            <path class="cls-1" d="M138.46,58.44a3.8,3.8,0,1,1,3.81,3.65A3.64,3.64,0,0,1,138.46,58.44Zm6.57,0a2.78,2.78,0,1,0-2.76,2.75A2.68,2.68,0,0,0,145,58.44Z"/>
            <path class="cls-1" d="M152.77,54.87h3a3.58,3.58,0,1,1,0,7.14h-3Zm2.95,6.26a2.7,2.7,0,1,0,0-5.38h-1.93v5.38Z"/>
            <path class="cls-1" d="M166.36,54.87h1V62h-1Z"/>
            <path class="cls-1" d="M180.83,54.87V62H180l-4.28-5.33V62h-1V54.87h.84l4.29,5.33V54.87Z"/>
            <path class="cls-1" d="M193.08,58.4h1v2.79a4.21,4.21,0,0,1-2.7.9,3.66,3.66,0,1,1,0-7.31,3.55,3.55,0,0,1,2.74,1.11l-.63.63a2.83,2.83,0,0,0-2.07-.83,2.75,2.75,0,1,0,0,5.5,3.07,3.07,0,0,0,1.67-.46Z"/>
            <path class="cls-1" d="M210.49,55.75H208v-.88H214v.88H211.5V62h-1Z"/>
            <path class="cls-1" d="M226.37,54.87V62h-1V58.83h-4.11V62h-1V54.87h1v3.07h4.11V54.87Z"/>
            <path class="cls-1" d="M238.85,61.13V62h-5.18V54.87h5v.88h-4V58h3.58v.87h-3.58v2.31Z"/>
            <path class="cls-1" d="M254.59,55.75v2.5h3.58v.87h-3.58V62h-1V54.87h5v.88Z"/>
            <path class="cls-1" d="M265.15,58.93V54.87h1v4c0,1.58.72,2.3,2,2.3s2-.72,2-2.3v-4h1v4.06c0,2.07-1.13,3.16-3,3.16S265.15,61,265.15,58.93Z"/>
            <path class="cls-1" d="M279.73,55.75h-2.46v-.88h5.92v.88h-2.45V62h-1Z"/>
            <path class="cls-1" d="M289.26,58.93V54.87h1v4c0,1.58.73,2.3,2,2.3s2-.72,2-2.3v-4h1v4.06c0,2.07-1.14,3.16-3,3.16S289.26,61,289.26,58.93Z"/>
            <path class="cls-1" d="M307.33,62l-1.54-2.19-.45,0h-1.76V62h-1V54.87h2.79c1.86,0,3,.94,3,2.49a2.24,2.24,0,0,1-1.57,2.25l1.7,2.4Zm0-4.65c0-1-.68-1.61-2-1.61h-1.73V59h1.73C306.62,59,307.3,58.38,307.3,57.36Z"/>
            <path class="cls-1" d="M320.32,61.13V62h-5.19V54.87h5.05v.88h-4V58h3.59v.87h-3.59v2.31Z"/>
            <path class="cls-2" d="M51.06,50.28a2.3,2.3,0,0,0-2.29,2.29,2.24,2.24,0,0,0,1.74,2.18V62.9l-8.29,4.52L35,62.93V60a.59.59,0,0,0,0-.13V5.33l8-3.91,1.86.93a1.29,1.29,0,0,0-.06.4A2.29,2.29,0,1,0,47.1.47a2.25,2.25,0,0,0-1.63.72L43.14,0a.28.28,0,0,0-.25,0L34.39,4.2,28.91,1.52a7,7,0,0,0-6.28.09L19.91,3.05a.66.66,0,1,0,.61,1.16l2.72-1.44a5.62,5.62,0,0,1,5.1-.08l5.38,2.64V60a5.56,5.56,0,0,1-2.62,4.59l-1.77,1.11a5.6,5.6,0,0,1-5.66.17L21.18,64.5a5.63,5.63,0,0,1-2.92-4.93V54A.66.66,0,1,0,17,54v5.57a6.93,6.93,0,0,0,3.61,6.08L23,67a7,7,0,0,0,7-.21l1.78-1.11a6.89,6.89,0,0,0,2-2l0,0,8,5,.19.11a.24.24,0,0,0,.15,0,.31.31,0,0,0,.13,0l9.35-5.1a.29.29,0,0,0,.15-.25V54.69a2.26,2.26,0,0,0,1.53-2.12A2.3,2.3,0,0,0,51.06,50.28Zm0,1.28a1,1,0,1,1-1,1A1,1,0,0,1,51.06,51.56Zm-4-47.83a1,1,0,1,1,0-1.95,1,1,0,0,1,0,2Z"/>
            <path class="cls-2" d="M59.16,19.09l-7.67,4.76a2.22,2.22,0,0,0-1.5-.58,2.29,2.29,0,1,0,2.29,2.28,2,2,0,0,0-.09-.59l7.13-4.42,7.82,4.81V33.1l-7.73,5a2.25,2.25,0,0,0-1.54-.62,2.29,2.29,0,1,0,2.28,2.29,1.8,1.8,0,0,0-.08-.54l8.24-5.34a.28.28,0,0,0,.13-.24V24.78a.28.28,0,0,0-.13-.24l-8.85-5.45A.27.27,0,0,0,59.16,19.09ZM51,25.58a1,1,0,1,1-1-1A1,1,0,0,1,51,25.58Zm7.87,14.19a1,1,0,1,1-1-1A1,1,0,0,1,58.83,39.77Z"/>
            <path class="cls-2" d="M3.48,35.86l5.95,3.86a.74.74,0,0,0,.35.1.64.64,0,0,0,.55-.3.67.67,0,0,0-.19-.91L4.19,34.76a5.6,5.6,0,0,1-2.56-4.71V28.49A5.65,5.65,0,0,1,4.3,23.71l2.2-1.36a5.6,5.6,0,0,1,5.9,0l4.86,3a.66.66,0,0,0,.9-.22.65.65,0,0,0-.21-.9l-4.86-3a6.88,6.88,0,0,0-7.27,0l-2.2,1.35a7,7,0,0,0-3.3,5.9v1.56A6.89,6.89,0,0,0,3.48,35.86Z"/>
            <path class="cls-2" d="M40.78,8.62a2.29,2.29,0,1,0,2.29,2.28,1.51,1.51,0,0,0-.06-.38L51.15,6l7.35,4.5V14.2a2.23,2.23,0,0,0-1.63,2.14,2.29,2.29,0,1,0,2.94-2.15V10a.29.29,0,0,0-.14-.25L51.32,4.59a.3.3,0,0,0-.29,0L42.42,9.35A2.23,2.23,0,0,0,40.78,8.62Zm1,2.31a1,1,0,1,1-1-1A1,1,0,0,1,41.75,10.93Zm17.41,6.39a1,1,0,1,1,1-1A1,1,0,0,1,59.16,17.32Z"/>
            <path class="cls-2" d="M9.62,18.14a.65.65,0,0,0,.65-.65V13.66A5.67,5.67,0,0,1,13,8.87l1.88-1.15a5.62,5.62,0,0,1,5.65-.12l5.94,3.29a.66.66,0,0,0,.88-.26.61.61,0,0,0,.06-.49.69.69,0,0,0-.31-.4L21.12,6.46a6.92,6.92,0,0,0-7,.15L12.27,7.76A7,7,0,0,0,9,13.66v3.83A.66.66,0,0,0,9.62,18.14Z"/>
            <path class="cls-2" d="M68.09,35.57A2.27,2.27,0,0,0,67.46,40V42.9l-7.68,5.43L51.17,43V34.66l8.21-4.46a2.27,2.27,0,0,0,1.5.58,2.29,2.29,0,1,0-2.28-2.29,2.06,2.06,0,0,0,.08.6l-8.13,4.42-7.21-4.8V20.45l6.18-4.06a2.28,2.28,0,1,0-.92-1.82,2.22,2.22,0,0,0,.14.76l-6.58,4.33a.28.28,0,0,0-.13.23v9.37a.28.28,0,0,0,.13.23l7.7,5.13v8.46l-7.74,6-.14.11a.28.28,0,0,0-.11.22v8.91a2.28,2.28,0,1,0,1.31,0V49.92l7.38-5.72,8.59,5.27v8.25L57.25,59a2.23,2.23,0,0,0-1.46-.54,2.29,2.29,0,1,0,2.29,2.28,2.51,2.51,0,0,0-.1-.66l2.35-1.55a.28.28,0,0,0,.13-.24V49.45l8-5.68.15-.11a.27.27,0,0,0,.12-.23V40a2.25,2.25,0,0,0,1.61-2.15A2.29,2.29,0,0,0,68.09,35.57Zm0,1.31a1,1,0,1,1-1,1A1,1,0,0,1,68.09,36.88Zm-7.2-7.4a1,1,0,1,1,1-1A1,1,0,0,1,60.89,29.48Zm-10-13.92a1,1,0,1,1,1-1A1,1,0,0,1,50.89,15.56ZM42.5,61.49a1,1,0,1,1,1-1A1,1,0,0,1,42.5,61.49Zm14.28-.78a1,1,0,1,1-1-1A1,1,0,0,1,56.78,60.71Z"/>
            <path class="cls-2" d="M12,59.41a5.63,5.63,0,0,1-2.41-4.62V52.36A6.91,6.91,0,0,0,9,49.7a.8.8,0,0,0,.27,0L18.6,44h0a7,7,0,0,0,1.66,1.85l3.14,2.43a5.58,5.58,0,0,1,2.17,4.44v6.38a.66.66,0,1,0,1.31,0V52.67a6.88,6.88,0,0,0-2.68-5.47l-3.13-2.43a5.56,5.56,0,0,1-2.18-4.44v-2.7A5.61,5.61,0,0,1,21.41,33l2.24-1.5a6.91,6.91,0,0,0,3.09-5.76V23.52a6.89,6.89,0,0,0-3.19-5.83L17.79,14a.65.65,0,0,0-.7,1.1l5.76,3.69a5.62,5.62,0,0,1,2.58,4.73V25.7a5.63,5.63,0,0,1-2.5,4.68l-2.24,1.49a6.89,6.89,0,0,0-2,2c0-.07-.08-.16-.17-.21L9.28,28.65a.63.63,0,0,0-.5,0,.61.61,0,0,0-.39.31.67.67,0,0,0,.26.89L18,34.85a.77.77,0,0,0,.26.07,6.75,6.75,0,0,0-.61,2.71v2.7a7,7,0,0,0,.45,2.45l-.13.07-9.3,5.7s-.06.1-.1.15a6.72,6.72,0,0,0-1.83-2l-3-2.12A5.63,5.63,0,0,1,1.31,40V37.21a.67.67,0,0,0-.66-.66.66.66,0,0,0-.65.66V40a6.91,6.91,0,0,0,2.93,5.66l3,2.12a5.63,5.63,0,0,1,2.38,4.59v2.43a6.91,6.91,0,0,0,3,5.69l3.17,2.2a.61.61,0,0,0,.37.12.64.64,0,0,0,.54-.28.66.66,0,0,0,.11-.49.66.66,0,0,0-.27-.42Z"/>
        </g>
    </g>
</svg>